HIERARCHY
ROOT Hips
{
	OFFSET 0.00000 0.00000 0.00000
	CHANNELS 6 Xposition Yposition Zposition Yrotation Zrotation Xrotation 
	JOINT Lumbar
	{
		OFFSET 0 0 0
		CHANNELS 3 Zrotation Xrotation Yrotation
		JOINT Neck
		{
			OFFSET 0.00 0.2701 0.00
			CHANNELS 3 Zrotation Xrotation Yrotation
			End Site
			{
				OFFSET 0.00 0.1379 0.00
			}
		}
		JOINT RightShoulder
		{
			OFFSET 0.0119 0.2289 0.1181
			CHANNELS 3 Zrotation Xrotation Yrotation
			JOINT RightElbow
			{
				OFFSET 0.00 -0.1475 0.00
				CHANNELS 2 Zrotation Yrotation
				JOINT RightWrist
				{
					OFFSET 0.00 -0.1605 0.00
					CHANNELS 2 Zrotation Xrotation
					End Site
					{
						OFFSET 0.0040 -0.1068 0.0006
					}
				}
			}
		}
		JOINT LeftShoulder
		{
			OFFSET 0.0119 0.2289 -0.1181
			CHANNELS 3 Zrotation Xrotation Yrotation
			JOINT LeftElbow
			{
				OFFSET 0.00 -0.1475 0.00
				CHANNELS 2 Zrotation Yrotation
				JOINT LeftWrist
				{
					OFFSET 0.00 -0.1605 0.00
					CHANNELS 2 Zrotation Xrotation
					End Site
					{
						OFFSET 0.0040 -0.1068 -0.0006
					}
				}
			}
		}
	}
	JOINT RightHip
	{
		OFFSET 0.0316 -0.0424 0.0458
		CHANNELS 3 Zrotation Xrotation Yrotation
		JOINT RightKnee
		{
			OFFSET 0.00 -0.2438 0.00
			CHANNELS 1 Zrotation
			JOINT RightAnkle
			{
				OFFSET 0.00 -0.2449 0.00
				CHANNELS 3 Zrotation Xrotation Yrotation
				End Site
				{
					OFFSET 0.1237 -0.0542 0.0051
				}
			}
		}
	}
	JOINT LeftHip
	{
		OFFSET 0.0316 -0.0424 -0.0458
		CHANNELS 3 Zrotation Xrotation Yrotation
		JOINT LeftKnee
		{
			OFFSET 0.00 -0.2438 0.00
			CHANNELS 1 Zrotation
			JOINT LeftAnkle
			{
				OFFSET 0.00 -0.2449 0.00
				CHANNELS 3 Zrotation Xrotation Yrotation
				End Site
				{
					OFFSET 0.1237 -0.0542 -0.0051
				}
			}
		}
	}
}
MOTION
Frames: 22
Frame Time: 0.02
-0.22229 -0.00053 -0.03364 -141.08212 -34.90486 0.31035 36.99665 5.5126 -1.57954 -27.36562 3.16549 -0.83 -15.2973 -17.81273 -10.14516 24.8573 88.55774 5.55478 5.42019 -23.26332 23.15436 -13.53219 48.42435 -94.55532 9.38938 -0.17593 43.33571 2.44071 -11.26124 -22.13616 -6.28611 -3.89769 -2.66398 50.17085 12.32236 -8.17217 -38.63291 -8.4386 3.44062 2.51877
-0.22305 -0.00062 -0.03379 -141.22411 -35.07177 0.35156 37.06209 5.56808 -1.7155 -27.35643 3.15797 -0.83 -15.39653 -17.85871 -9.61797 24.79732 88.54877 5.6808 5.29376 -23.20296 23.44284 -13.90101 48.582 -92.64501 8.64689 0.29663 43.4294 2.49897 -11.15656 -22.05851 -6.27806 -3.88303 -2.66054 50.07176 12.5356 -7.42978 -36.92518 -8.30572 3.35098 2.46042
-0.22373 -0.00071 -0.03379 -141.40964 -35.18704 0.39164 37.06528 5.60976 -1.82294 -27.35664 3.14244 -0.83001 -15.37676 -17.89978 -8.81646 24.80089 88.52428 5.86358 5.1141 -23.10689 23.78091 -14.37474 48.72305 -90.33701 7.74668 0.8773 43.4603 2.56519 -10.92487 -21.96614 -6.27507 -3.87463 -2.66225 49.88686 12.89585 -6.31448 -35.05795 -8.14637 3.16944 2.3491
-0.22443 -0.0008 -0.03385 -141.58539 -35.32897 0.42659 37.10028 5.65908 -1.94153 -27.35142 3.13134 -0.83001 -15.41246 -17.93445 -8.15757 24.80247 88.50693 6.02141 4.95882 -23.0362 24.07837 -14.75428 48.87542 -88.48847 7.0047 1.35177 43.52425 2.62747 -10.76729 -21.88394 -6.26893 -3.8618 -2.6603 49.749 13.17586 -5.39501 -33.28956 -8.00124 3.03271 2.26409
-0.22516 -0.00088 -0.03395 -141.72245 -35.46 0.48459 37.12219 5.7034 -2.06568 -27.35075 3.11599 -0.83001 -15.44377 -18.00548 -7.41882 24.70016 88.48921 6.18286 4.79933 -22.92919 24.44907 -15.31981 49.01394 -85.51472 5.91287 2.05854 43.57337 2.68936 -10.54851 -21.78984 -6.26579 -3.85447 -2.66322 49.57634 13.51228 -4.36655 -31.39537 -7.84654 2.88224 2.16928
-0.22583 -0.00099 -0.03393 -141.94817 -35.60034 0.49526 37.15563 5.75399 -2.17303 -27.34219 3.10793 -0.83001 -15.45398 -18.00063 -6.77827 24.82512 88.46771 6.34323 4.63757 -22.88682 24.68249 -15.53395 49.17569 -84.72344 5.49166 2.31836 43.6371 2.75398 -10.42268 -21.71642 -6.25803 -3.83776 -2.65761 49.45572 13.76646 -3.47629 -29.73274 -7.70618 2.73921 2.08254
-0.22635 -0.00118 -0.0336 -142.41977 -35.78088 0.36738 37.23962 5.83258 -2.23102 -27.31963 3.12204 -0.83001 -15.45295 -17.77508 -6.53352 25.56899 88.45062 6.54114 4.4792 -23.05224 24.49556 -14.66254 49.41658 -90.64871 7.14574 1.21791 43.75352 2.83208 -10.60079 -21.69784 -6.2337 -3.79174 -2.62558 49.50476 13.75448 -3.05215 -28.72683 -7.60482 2.63561 2.02978
-0.22681 -0.00141 -0.03315 -142.97697 -35.97194 0.19337 37.3366 5.91667 -2.27466 -27.28732 3.1437 -0.83001 -15.43181 -17.47542 -6.38861 26.537 88.42858 6.72687 4.32153 -23.28027 24.17385 -13.44972 49.67931 -98.68172 9.44852 -0.31863 43.88677 2.91149 -10.87317 -21.70119 -6.20503 -3.73648 -2.58512 49.60848 13.65508 -2.78142 -27.96561 -7.51999 2.54352 1.98732
-0.22728 -0.00161 -0.03276 -143.48641 -36.15655 0.0459 37.42508 5.99332 -2.33218 -27.25276 3.16223 -0.83001 -15.40775 -17.21774 -6.16037 27.39633 88.40142 6.88046 4.16607 -23.46582 23.93355 -12.45377 49.92461 -105.35137 11.32981 -1.58883 44.01363 2.98553 -11.09046 -21.6979 -6.1801 -3.68695 -2.54973 49.68403 13.59797 -2.44367 -27.10805 -7.43228 2.44847 1.94092
-0.22779 -0.00184 -0.03237 -144.03306 -36.34623 -0.12489 37.52206 6.08998 -2.35954 -27.24583 3.17997 -0.83001 -15.42909 -16.92517 -6.07869 28.28606 88.40384 7.18959 3.99772 -23.70844 23.61158 -11.20581 50.20069 -113.68647 13.72929 -3.13848 44.133 3.08014 -11.35393 -21.68016 -6.14801 -3.63154 -2.50948 49.77025 13.53589 -2.07903 -26.18076 -7.32445 2.34021 1.88923
-0.22822 -0.00203 -0.03194 -144.52414 -36.5288 -0.25837 37.60563 6.14692 -2.44428 -27.18003 3.20028 -0.83001 -15.35435 -16.68737 -5.72401 29.16582 88.34488 7.17809 3.8575 -23.84863 23.42491 -10.39417 50.41851 -119.09922 15.21953 -4.21672 44.27288 3.1319 -11.54676 -21.69783 -6.12956 -3.58562 -2.47702 49.84877 13.46059 -1.81485 -25.46043 -7.26234 2.26393 1.85207
-0.22847 -0.00215 -0.03142 -144.82164 -36.6862 -0.2747 37.64531 6.08872 -2.71197 -26.9445 3.23462 -0.83001 -15.00512 -16.62234 -4.54974 29.95338 88.10751 6.22321 3.79153 -23.68151 23.66313 -10.92338 50.46629 -115.58285 13.9221 -3.83916 44.46379 3.06683 -11.50839 -21.80861 -6.15156 -3.57223 -2.47049 49.88924 13.37734 -1.76423 -25.24102 -7.32635 2.26878 1.8495
-0.22865 -0.00225 -0.03084 -145.06345 -36.83655 -0.25245 37.67179 5.9912 -3.03434 -26.65183 3.26987 -0.83001 -14.56313 -16.61464 -3.10616 30.72417 87.8105 4.95682 3.7547 -23.41112 24.03842 -11.89313 50.45555 -109.12302 11.71087 -2.98222 44.67493 2.95821 -11.39863 -21.95418 -6.1871 -3.56795 -2.47164 49.92097 13.2819 -1.81547 -25.22465 -7.4352 2.30657 1.86195
-0.22884 -0.00235 -0.03028 -145.34337 -36.99277 -0.24962 37.70734 5.91448 -3.31778 -26.39151 3.29875 -0.83001 -14.17348 -16.57818 -1.81469 31.50931 87.54754 3.87321 3.70702 -23.19411 24.33882 -12.62631 50.4741 -104.23312 9.99538 -2.37547 44.87862 2.8683 -11.33082 -22.08347 -6.21529 -3.55678 -2.46768 49.95954 13.18638 -1.84009 -25.12269 -7.52108 2.33278 1.86986
-0.22907 -0.00247 -0.02977 -145.57302 -37.13951 -0.24022 37.73133 5.82558 -3.65925 -26.1038 3.3523 -0.83001 -13.74008 -16.54952 -0.40204 32.27585 87.25516 2.61669 3.6494 -22.95173 24.68808 -13.50136 50.48174 -98.41928 7.95965 -1.64446 45.07719 2.78305 -11.22642 -22.21561 -6.24836 -3.55681 -2.47023 49.98849 13.11092 -1.78973 -24.9994 -7.61844 2.34558 1.86876
-0.22922 -0.00254 -0.02913 -145.8921 -37.3024 -0.235 37.77485 5.75264 -3.89413 -25.85982 3.35551 -0.83001 -13.37603 -16.52047 0.82467 33.0718 87.00985 1.64464 3.61919 -22.73724 24.96945 -14.18973 50.49828 -93.82436 6.36941 -1.05642 45.28889 2.6777 -11.17963 -22.34962 -6.2746 -3.53592 -2.46123 50.03392 12.99282 -1.91407 -24.96755 -7.70235 2.39331 1.88947
-0.22916 -0.00242 -0.02816 -146.47922 -37.52668 -0.24839 37.88616 5.73318 -3.81163 -25.74951 3.21153 -0.83002 -13.22692 -16.46565 1.46037 33.97206 86.91007 1.55025 3.65957 -22.62121 25.0344 -14.25943 50.55023 -93.10871 6.19228 -0.94414 45.5499 2.5276 -11.31275 -22.48169 -6.27831 -3.4538 -2.41774 50.13354 12.75208 -2.52884 -25.12123 -7.73777 2.53547 1.97014
-0.22902 -0.00225 -0.02704 -147.15647 -37.76443 -0.26752 38.01535 5.73108 -3.62173 -25.68536 3.01828 -0.83002 -13.15093 -16.41071 1.90159 34.89739 86.85956 1.75001 3.72618 -22.53702 25.02651 -14.12764 50.61354 -93.73622 6.49622 -0.99475 45.81978 2.3587 -11.50511 -22.61403 -6.27479 -3.35059 -2.36254 50.24848 12.47063 -3.30975 -25.36217 -7.75809 2.71048 2.07157
-0.22891 -0.00211 -0.02598 -147.78708 -37.98631 -0.28542 38.12958 5.72119 -3.48755 -25.60091 2.85279 -0.83002 -13.0409 -16.36337 2.44084 35.79815 86.78592 1.80465 3.77947 -22.44068 25.04914 -14.08589 50.67402 -93.89052 6.60727 -0.99514 46.07394 2.19838 -11.66777 -22.74529 -6.27484 -3.25786 -2.3132 50.35198 12.21358 -3.99131 -25.57296 -7.78547 2.86644 2.16123
-0.22881 -0.00194 -0.02497 -148.43967 -38.24981 -0.29631 38.27298 5.70976 -3.32653 -25.51187 2.66473 -0.83002 -12.93041 -16.28663 2.95156 36.75582 86.71337 1.89655 3.83968 -22.33175 25.08574 -14.0628 50.72329 -93.41831 6.5911 -0.88739 46.37897 2.03657 -11.84009 -22.88201 -6.27414 -3.16163 -2.26185 50.47448 11.93164 -4.77416 -25.74991 -7.8136 3.04095 2.26128
-0.22867 -0.00181 -0.02383 -149.06873 -38.429 -0.32349 38.35905 5.70587 -3.19465 -25.44374 2.51186 -0.83002 -12.84024 -16.26971 3.46842 37.59894 86.65096 1.98495 3.89133 -22.25699 25.07618 -13.95101 50.79854 -94.54026 6.9498 -1.0387 46.5789 1.87373 -12.00683 -23.0067 -6.27315 -3.06762 -2.21184 50.56067 11.69142 -5.38796 -26.0166 -7.83599 3.18421 2.34442
-0.22849 -0.0018 -0.02239 -149.61001 -38.38049 -0.39601 38.29149 5.72121 -3.17373 -25.42536 2.46904 -0.83002 -12.78225 -16.4238 4.07982 38.13733 86.6054 1.99173 3.91285 -22.27765 24.93914 -13.60939 50.94997 -100.34171 8.37129 -1.96425 46.49553 1.71524 -12.14652 -23.10026 -6.27267 -2.98432 -2.16822 50.54725 11.58279 -5.45911 -26.49733 -7.84599 3.23232 2.37565
